<svg xmlns="http://www.w3.org/2000/svg" viewBox="0 0 217.205 217.205"><path fill="#1abc9c" d="M128.606 31.161a21.874 21.874 0 002.002-9.153C130.608 9.873 120.735 0 108.601 0c-12.136 0-22.01 9.873-22.01 22.008 0 3.266.721 6.364 2.002 9.154-42.304 9.197-74.086 46.927-74.086 91.946 0 51.886 42.21 94.098 94.094 94.098 51.886 0 94.098-42.212 94.098-94.098-.001-45.021-31.786-82.751-74.093-91.947zm-27.015-9.153c0-3.864 3.144-7.008 7.01-7.008a7.016 7.016 0 017.008 7.008c0 3.863-3.144 7.006-7.008 7.006-3.866 0-7.01-3.143-7.01-7.006zm7.01 180.197c-43.612 0-79.094-35.483-79.094-79.098 0-43.612 35.481-79.094 79.094-79.094 43.614 0 79.098 35.481 79.098 79.094-.001 43.615-35.484 79.098-79.098 79.098z"/><path fill="#1abc9c" d="M129.959 105.733a7.504 7.504 0 00-3.842-3.925l-52.38-23.475a7.5 7.5 0 00-9.911 9.912L87.21 140.4a7.498 7.498 0 003.875 4.005l52.379 23.475a7.493 7.493 0 003.065.656h.083a7.5 7.5 0 007.438-7.5 7.453 7.453 0 00-.895-3.556l-23.196-51.747zm-19.904 5.314L96.546 124.56l-10.979-24.487 24.488 10.974zm-2.905 24.122l13.508-13.513 10.976 24.486-24.484-10.973z"/></svg>