<svg height="512pt" viewBox="0 0 512 512" xmlns="http://www.w3.org/2000/svg"><path fill="#1abc9c" d="M497 0H15C6.715 0 0 6.715 0 15v422c0 8.285 6.715 15 15 15h15v45c0 8.285 6.715 15 15 15h73c8.285 0 15-6.715 15-15v-45h246v45c0 8.285 6.715 15 15 15h73c8.285 0 15-6.715 15-15v-45h15c8.285 0 15-6.715 15-15V15c0-8.285-6.715-15-15-15zM103 482H60v-29h43zm349 0h-43v-29h43zm30-60H30V30h452zm0 0"/><path fill="#1abc9c" d="M75 392h362c8.285 0 15-6.715 15-15V75c0-8.285-6.715-15-15-15H75c-8.285 0-15 6.715-15 15v302c0 8.285 6.715 15 15 15zM90 90h332v51h-48c-8.285 0-15 6.715-15 15s6.715 15 15 15h48v110h-48c-8.285 0-15 6.715-15 15s6.715 15 15 15h48v51H90zm0 0"/><path fill="#1abc9c" d="M208 146c-44.113 0-80 35.887-80 80s35.887 80 80 80 80-35.89 80-80c0-44.113-35.887-80-80-80zm0 130c-27.57 0-50-22.43-50-50s22.43-50 50-50 50 22.43 50 50-22.43 50-50 50zm0 0"/><path fill="#1abc9c" d="M208 211c-8.262 0-15 6.738-15 15s6.738 15 15 15 15-6.738 15-15-6.738-15-15-15zm0 0"/></svg>