<svg aria-hidden="true" style="position: absolute; width: 0; height: 0; overflow: hidden;" version="1.1" xmlns="http://www.w3.org/2000/svg" xmlns:xlink="http://www.w3.org/1999/xlink">
<defs>
<symbol id="cart" viewBox="0 0 32 32">
<title>cart</title>
<path d="M6.229 6.933l-0.444-2.667h-1.595c-0.238-0.917-1.066-1.6-2.057-1.6-1.177 0-2.133 0.957-2.133 2.133s0.957 2.133 2.133 2.133c0.991 0 1.819-0.683 2.058-1.6h0.69l0.267 1.6h-0.020l2.758 13.875c-1.315 0.1-2.41 1.113-2.539 2.386-0.008 0.079-0.013 0.172-0.013 0.265 0 1.474 1.193 2.67 2.666 2.674h1.067c0 1.765 1.435 3.2 3.2 3.2s3.2-1.435 3.2-3.2h5.867c0 1.765 1.435 3.2 3.2 3.2s3.2-1.435 3.2-3.2h2.133c0.295 0 0.533-0.239 0.533-0.533s-0.239-0.533-0.533-0.533v0h-2.32c-0.441-1.241-1.623-2.133-3.013-2.133s-2.573 0.892-3.013 2.133h-6.24c-0.441-1.241-1.623-2.133-3.013-2.133s-2.573 0.892-3.013 2.133h-1.253c-0.47-0.002-0.892-0.205-1.185-0.528l-0.001-0.001c-0.257-0.28-0.415-0.656-0.415-1.068 0-0.059 0.003-0.117 0.009-0.174l-0.001 0.007c0.081-0.805 0.825-1.435 1.692-1.435h21.239c1.468-0.002 2.658-1.192 2.66-2.66v-12.274h-25.771zM2.133 5.867c-0.588 0-1.067-0.478-1.067-1.067s0.478-1.067 1.067-1.067 1.067 0.478 1.067 1.067-0.478 1.067-1.067 1.067zM24.533 24c1.177 0 2.133 0.957 2.133 2.133s-0.957 2.133-2.133 2.133-2.133-0.957-2.133-2.133 0.957-2.133 2.133-2.133zM12.267 24c1.177 0 2.133 0.957 2.133 2.133s-0.957 2.133-2.133 2.133-2.133-0.957-2.133-2.133 0.957-2.133 2.133-2.133zM30.933 19.207c-0.001 0.879-0.714 1.592-1.593 1.593h-20.369l-2.544-12.8h24.506v11.207z"></path>
</symbol>
<symbol id="heart" viewBox="0 0 32 32">
<title>heart</title>
<path d="M29.665 4.642c-1.578-1.791-3.768-2.777-6.165-2.777-3.372 0-5.506 2.014-6.703 3.703-0.311 0.438-0.575 0.878-0.797 1.292-0.222-0.414-0.486-0.853-0.797-1.292-1.197-1.689-3.332-3.703-6.703-3.703-2.397 0-4.587 0.986-6.165 2.777-1.506 1.708-2.335 3.996-2.335 6.442 0 2.663 1.040 5.139 3.272 7.794 1.995 2.372 4.865 4.818 8.188 7.65 1.238 1.055 2.519 2.146 3.882 3.339l0.041 0.036c0.177 0.155 0.397 0.232 0.617 0.232s0.441-0.077 0.617-0.232l0.041-0.036c1.363-1.193 2.644-2.284 3.882-3.339 3.323-2.832 6.193-5.277 8.188-7.65 2.232-2.655 3.272-5.131 3.272-7.794 0-2.446-0.829-4.734-2.335-6.443zM19.325 25.101c-1.067 0.91-2.166 1.846-3.325 2.853-1.158-1.007-2.257-1.943-3.325-2.853-6.504-5.542-10.8-9.203-10.8-14.016 0-1.989 0.663-3.837 1.866-5.203 1.217-1.381 2.907-2.142 4.759-2.142 2.571 0 4.232 1.584 5.174 2.912 0.844 1.192 1.285 2.393 1.435 2.854 0.126 0.379 0.477 0.647 0.891 0.647s0.765-0.268 0.889-0.64l0.002-0.007c0.15-0.461 0.591-1.662 1.435-2.854 0.941-1.328 2.603-2.912 5.174-2.912 1.851 0 3.541 0.761 4.759 2.142 1.204 1.366 1.866 3.213 1.866 5.203 0 4.813-4.297 8.474-10.8 14.016z"></path>
</symbol>
<symbol id="rewind" viewBox="0 0 32 32">
<title>rewind</title>
<path d="M0.303 4.842c0.075-0.040 0.164-0.063 0.259-0.063 0.121 0 0.233 0.038 0.325 0.103l-0.002-0.001 14.835 10.433v-9.98c0.001-0.31 0.252-0.561 0.562-0.561 0.121 0 0.232 0.038 0.324 0.103l-0.002-0.001 15.158 10.667c0.145 0.103 0.238 0.27 0.238 0.459s-0.093 0.356-0.237 0.458l-0.002 0.001-15.158 10.667c-0.090 0.065-0.202 0.103-0.323 0.103-0.094 0-0.183-0.024-0.261-0.065l0.003 0.001c-0.186-0.097-0.303-0.289-0.303-0.499v-9.98l-14.835 10.433c-0.090 0.064-0.202 0.102-0.323 0.102-0.094 0-0.183-0.023-0.261-0.064l0.003 0.001c-0.186-0.097-0.303-0.29-0.303-0.499v-21.319c0-0.209 0.117-0.402 0.303-0.499zM16.842 25.585l13.621-9.585-13.621-9.585v19.17zM1.123 25.579l13.621-9.579-13.621-9.578v19.157z"></path>
</symbol>
<symbol id="arrows" viewBox="0 0 32 32">
<title>arrows</title>
<path d="M12.699 21.178l0.979-1.58c0.235-0.379 0.118-0.868-0.261-1.103-0.372-0.235-0.868-0.118-1.103 0.261l-0.979 1.58c-1.776 2.866-4.309 4.512-6.96 4.512h-3.578c-0.444 0-0.797 0.359-0.797 0.803s0.359 0.803 0.797 0.803h3.585c3.219-0.013 6.249-1.933 8.318-5.276zM31.758 5.795l-3.878-3.885c-0.313-0.313-0.816-0.313-1.13 0s-0.313 0.816 0 1.13l2.52 2.52h-3.715c-3.212 0-6.249 1.92-8.318 5.263l-0.601 0.973c-0.235 0.379-0.118 0.868 0.261 1.103 0.131 0.078 0.274 0.118 0.418 0.118 0.268 0 0.529-0.137 0.679-0.379l0.601-0.973c1.776-2.866 4.309-4.505 6.96-4.505h3.709l-2.52 2.52c-0.313 0.313-0.313 0.816 0 1.13 0.157 0.157 0.359 0.235 0.568 0.235s0.411-0.078 0.568-0.235l3.885-3.885c0.307-0.313 0.307-0.823-0.007-1.13zM30.054 6.369v-0.026l0.013 0.013-0.013 0.013z"></path>
<path d="M26.744 30.090c0.157 0.157 0.359 0.235 0.568 0.235s0.411-0.078 0.568-0.235l3.885-3.885c0.313-0.313 0.313-0.816 0-1.13l-3.885-3.878c-0.313-0.313-0.816-0.313-1.13 0s-0.313 0.816 0 1.13l2.52 2.52h-3.598c-2.644 0-5.184-1.645-6.96-4.512l-5.889-9.513c-2.070-3.35-5.106-5.263-8.318-5.263h-3.709c-0.444 0-0.797 0.359-0.797 0.803s0.359 0.803 0.797 0.803h3.702c2.644 0 5.184 1.645 6.96 4.505l5.889 9.513c2.070 3.35 5.106 5.269 8.318 5.269h3.598l-2.52 2.52c-0.307 0.3-0.307 0.803 0 1.116zM30.054 25.631l0.013 0.013-0.013 0.013v-0.026z"></path>
</symbol>
<symbol id="clock" viewBox="0 0 32 32">
<title>clock</title>
<path d="M16 0c-8.822 0-16 7.178-16 16s7.178 16 16 16 16-7.178 16-16-7.178-16-16-16zM16 30.933c-8.234 0-14.933-6.699-14.933-14.933s6.699-14.933 14.933-14.933 14.933 6.699 14.933 14.933-6.699 14.933-14.933 14.933z"></path>
<path d="M16 3.2c-0.295 0-0.533 0.239-0.533 0.533v0 12.267h-8c-0.295 0-0.533 0.239-0.533 0.533s0.239 0.533 0.533 0.533v0h8.533c0.295 0 0.533-0.239 0.533-0.533v0-12.8c0-0.295-0.239-0.533-0.533-0.533v0z"></path>
</symbol>
</defs>
</svg>
