<svg xmlns="http://www.w3.org/2000/svg" viewBox="0 0 512 512"><path fill="#1abc9c" d="M500.537 212.423l-59.884-14.532a194.078 194.078 0 00-12.595-30.463l30.723-51.203a15 15 0 00-2.256-18.324L414.1 55.475a15 15 0 00-18.323-2.256L344.57 83.941a193.912 193.912 0 00-30.461-12.595l-14.532-59.883A15 15 0 00285 0h-60a15 15 0 00-14.577 11.463l-14.532 59.883a194.007 194.007 0 00-30.461 12.595l-51.206-30.722a15 15 0 00-18.323 2.256L53.475 97.9a15 15 0 00-2.256 18.324l30.723 51.203a193.914 193.914 0 00-12.616 30.529l-57.963 14.491A15.002 15.002 0 000 227v60a15 15 0 0011.362 14.552l57.963 14.491a194.01 194.01 0 0012.615 30.528l-30.722 51.203a15 15 0 002.256 18.324L95.9 458.525a15 15 0 0018.324 2.256l51.203-30.722a194.049 194.049 0 0030.529 12.616l14.491 57.963A15.002 15.002 0 00225 512h60a15 15 0 0014.552-11.362l14.491-57.963a194.01 194.01 0 0030.529-12.616l51.203 30.722a15 15 0 0018.324-2.256l42.426-42.427a15 15 0 002.256-18.324l-30.722-51.203a193.973 193.973 0 0012.594-30.461l59.884-14.533A15 15 0 00512 287v-60a15 15 0 00-11.463-14.577zM482 275.205L425.156 289a15 15 0 00-10.953 10.699c-3.746 13.998-9.269 27.357-16.413 39.705a14.998 14.998 0 00.121 15.229l29.12 48.533-25.863 25.864-48.532-29.119a14.998 14.998 0 00-15.229-.122c-12.353 7.146-25.713 12.668-39.709 16.415a14.997 14.997 0 00-10.674 10.852L273.288 482h-36.576l-13.736-54.944a14.997 14.997 0 00-10.674-10.852c-13.996-3.746-27.356-9.269-39.709-16.415a15 15 0 00-15.229.122l-48.532 29.119-25.863-25.864 29.12-48.533a14.996 14.996 0 00.121-15.229c-7.145-12.348-12.667-25.707-16.413-39.705a15 15 0 00-10.853-10.674L30 275.288v-36.577l54.944-13.736a15.002 15.002 0 0010.853-10.674c3.746-13.998 9.269-27.357 16.414-39.708a15.003 15.003 0 00-.122-15.229l-29.12-48.533 25.863-25.863 48.535 29.12a14.999 14.999 0 0015.228.121c12.358-7.149 25.718-12.671 39.706-16.414a15 15 0 0010.7-10.953L236.795 30h36.41l13.794 56.844a15.003 15.003 0 0010.7 10.953c13.988 3.743 27.348 9.265 39.706 16.414a14.999 14.999 0 0015.228-.121l48.535-29.12 25.863 25.863-29.12 48.533a15 15 0 00-.122 15.229c7.146 12.351 12.668 25.71 16.414 39.708a15.001 15.001 0 0010.953 10.699L482 238.795v36.41z"/><path fill="#1abc9c" d="M255 152c-57.897 0-105 47.103-105 105s47.103 105 105 105 105-47.103 105-105-47.103-105-105-105zm0 180c-41.355 0-75-33.645-75-75s33.645-75 75-75 75 33.645 75 75-33.645 75-75 75z"/></svg>