<svg aria-hidden="true" style="position:absolute;width:0;height:0" xmlns="http://www.w3.org/2000/svg" overflow="hidden"><defs><symbol id="cart" viewBox="0 0 32 32"><path d="M6.229 6.933l-.444-2.667H4.19a2.13 2.13 0 00-2.057-1.6C.956 2.666 0 3.623 0 4.799s.957 2.133 2.133 2.133c.991 0 1.819-.683 2.058-1.6h.69l.267 1.6h-.02l2.758 13.875c-1.315.1-2.41 1.113-2.539 2.386A2.674 2.674 0 008 26.132h1.067c0 1.765 1.435 3.2 3.2 3.2s3.2-1.435 3.2-3.2h5.867c0 1.765 1.435 3.2 3.2 3.2s3.2-1.435 3.2-3.2h2.133a.533.533 0 100-1.066h-2.32c-.441-1.241-1.623-2.133-3.013-2.133s-2.573.892-3.013 2.133h-6.24c-.441-1.241-1.623-2.133-3.013-2.133s-2.573.892-3.013 2.133H8.002a1.604 1.604 0 01-1.185-.528l-.001-.001a1.576 1.576 0 01-.406-1.242l-.001.007c.081-.805.825-1.435 1.692-1.435H29.34a2.664 2.664 0 002.66-2.66V6.933H6.229zM2.133 5.867a1.068 1.068 0 010-2.134 1.067 1.067 0 010 2.134zM24.533 24c1.177 0 2.133.957 2.133 2.133s-.957 2.133-2.133 2.133-2.133-.957-2.133-2.133S23.357 24 24.533 24zm-12.266 0c1.177 0 2.133.957 2.133 2.133s-.957 2.133-2.133 2.133-2.133-.957-2.133-2.133S11.091 24 12.267 24zm18.666-4.793A1.595 1.595 0 0129.34 20.8H8.971L6.427 8h24.506v11.207z"/></symbol><symbol id="heart" viewBox="0 0 32 32"><path d="M29.665 4.642c-1.578-1.791-3.768-2.777-6.165-2.777-3.372 0-5.506 2.014-6.703 3.703-.311.438-.575.878-.797 1.292a12.265 12.265 0 00-.797-1.292C14.006 3.879 11.871 1.865 8.5 1.865c-2.397 0-4.587.986-6.165 2.777C.829 6.35 0 8.638 0 11.084c0 2.663 1.04 5.139 3.272 7.794 1.995 2.372 4.865 4.818 8.188 7.65 1.238 1.055 2.519 2.146 3.882 3.339l.041.036a.934.934 0 001.234 0l.041-.036c1.363-1.193 2.644-2.284 3.882-3.339 3.323-2.832 6.193-5.277 8.188-7.65C30.96 16.223 32 13.747 32 11.084c0-2.446-.829-4.734-2.335-6.443zm-10.34 20.459c-1.067.91-2.166 1.846-3.325 2.853-1.158-1.007-2.257-1.943-3.325-2.853-6.504-5.542-10.8-9.203-10.8-14.016 0-1.989.663-3.837 1.866-5.203A6.258 6.258 0 018.5 3.74c2.571 0 4.232 1.584 5.174 2.912a11.125 11.125 0 011.435 2.854.938.938 0 001.78.007l.002-.007c.15-.461.591-1.662 1.435-2.854.941-1.328 2.603-2.912 5.174-2.912 1.851 0 3.541.761 4.759 2.142 1.204 1.366 1.866 3.213 1.866 5.203 0 4.813-4.297 8.474-10.8 14.016z"/></symbol><symbol id="rewind" viewBox="0 0 32 32"><path d="M.303 4.842a.56.56 0 01.584.04l-.002-.001L15.72 15.314v-9.98a.562.562 0 01.886-.458l-.002-.001 15.158 10.667a.56.56 0 01.001.917l-.002.001-15.158 10.667a.55.55 0 01-.584.038l.003.001a.563.563 0 01-.303-.499v-9.98L.884 27.12a.556.556 0 01-.584.038l.003.001A.564.564 0 010 26.66V5.341c0-.209.117-.402.303-.499zm16.539 20.743L30.463 16 16.842 6.415v19.17zm-15.719-.006L14.744 16 1.123 6.422v19.157z"/></symbol><symbol id="arrows" viewBox="0 0 32 32"><path d="M12.699 21.178l.979-1.58a.797.797 0 00-.261-1.103.799.799 0 00-1.103.261l-.979 1.58c-1.776 2.866-4.309 4.512-6.96 4.512H.797c-.444 0-.797.359-.797.803s.359.803.797.803h3.585c3.219-.013 6.249-1.933 8.318-5.276zM31.758 5.795L27.88 1.91c-.313-.313-.816-.313-1.13 0s-.313.816 0 1.13l2.52 2.52h-3.715c-3.212 0-6.249 1.92-8.318 5.263l-.601.973a.797.797 0 00.679 1.221.8.8 0 00.679-.379l.601-.973c1.776-2.866 4.309-4.505 6.96-4.505h3.709l-2.52 2.52a.797.797 0 000 1.13c.157.157.359.235.568.235s.411-.078.568-.235l3.885-3.885a.802.802 0 00-.007-1.13zm-1.704.574v-.026l.013.013-.013.013z"/><path d="M26.744 30.09c.157.157.359.235.568.235s.411-.078.568-.235l3.885-3.885a.797.797 0 000-1.13l-3.885-3.878c-.313-.313-.816-.313-1.13 0s-.313.816 0 1.13l2.52 2.52h-3.598c-2.644 0-5.184-1.645-6.96-4.512l-5.889-9.513c-2.07-3.35-5.106-5.263-8.318-5.263H.796c-.444 0-.797.359-.797.803s.359.803.797.803h3.702c2.644 0 5.184 1.645 6.96 4.505l5.889 9.513c2.07 3.35 5.106 5.269 8.318 5.269h3.598l-2.52 2.52a.791.791 0 000 1.116zm3.31-4.459l.013.013-.013.013v-.026z"/></symbol><symbol id="clock" viewBox="0 0 32 32"><path d="M16 0C7.178 0 0 7.178 0 16s7.178 16 16 16 16-7.178 16-16S24.822 0 16 0zm0 30.933C7.766 30.933 1.067 24.234 1.067 16S7.766 1.067 16 1.067 30.933 7.766 30.933 16 24.234 30.933 16 30.933z"/><path d="M16 3.2a.533.533 0 00-.533.533V16h-8a.533.533 0 100 1.066H16a.533.533 0 00.533-.533v-12.8A.533.533 0 0016 3.2z"/></symbol></defs></svg>