<svg height="512" width="512" xmlns="http://www.w3.org/2000/svg"><path fill="#1abc9c" d="M437.02 74.98C388.667 26.629 324.38 0 256 0S123.333 26.629 74.98 74.98C26.629 123.333 0 187.62 0 256s26.629 132.667 74.98 181.02C123.333 485.371 187.62 512 256 512s132.667-26.629 181.02-74.98C485.371 388.667 512 324.38 512 256s-26.629-132.667-74.98-181.02zm-1.191 317.942c-17.226-8.904-36.716-16.411-57.812-22.357 8.001-30.727 12.705-64.491 13.751-99.565h89.73c-2.903 44.6-18.728 86.69-45.669 121.922zM30.502 271h89.73c1.046 35.074 5.75 68.839 13.751 99.565-21.096 5.946-40.586 13.453-57.812 22.357C49.23 357.69 33.405 315.6 30.502 271zm45.669-151.922c17.226 8.904 36.716 16.411 57.812 22.357-8.001 30.727-12.705 64.491-13.751 99.565h-89.73c2.903-44.6 18.728-86.69 45.669-121.922zM241 127.251c-23.867-.763-47.076-3.338-68.906-7.56 3.526-9.638 7.445-18.795 11.752-27.373C199.898 60.345 220.133 39.389 241 32.497zm0 30.014V241h-90.756c1.032-32.765 5.437-64.154 12.882-92.543 24.684 4.988 50.945 7.991 77.874 8.808zM241 271v83.735c-26.929.818-53.19 3.82-77.874 8.808-7.445-28.389-11.85-59.777-12.882-92.542H241zm0 113.749v94.754c-20.867-6.892-41.102-27.848-57.154-59.821-4.307-8.578-8.226-17.736-11.752-27.373 21.829-4.222 45.038-6.797 68.906-7.56zm30 0c23.868.763 47.077 3.338 68.906 7.56-3.526 9.638-7.445 18.795-11.752 27.373-16.053 31.973-36.287 52.929-57.154 59.821zm0-30.014V271h90.756c-1.032 32.765-5.437 64.154-12.882 92.542-24.684-4.987-50.945-7.99-77.874-8.807zM271 241v-83.735c26.929-.818 53.19-3.82 77.874-8.808 7.445 28.389 11.85 59.778 12.882 92.543zm0-113.749V32.497c20.867 6.892 41.102 27.848 57.154 59.821 4.307 8.578 8.226 17.735 11.752 27.373-21.83 4.222-45.039 6.797-68.906 7.56zm83.965-48.395c-6.78-13.503-14.243-25.377-22.257-35.562 30.698 11.048 58.851 28.788 82.659 52.472-13.952 6.655-29.44 12.359-46.077 17.018-4.226-11.982-9.008-23.337-14.325-33.928zm-197.93 0c-5.317 10.59-10.099 21.945-14.326 33.928-16.637-4.659-32.124-10.363-46.077-17.018 23.808-23.684 51.961-41.424 82.659-52.472-8.013 10.185-15.476 22.06-22.256 35.562zm-14.326 320.359c4.227 11.983 9.009 23.338 14.326 33.928 6.78 13.503 14.243 25.377 22.257 35.562-30.698-11.048-58.851-28.788-82.659-52.472 13.952-6.655 29.44-12.359 46.076-17.018zm212.256 33.929c5.317-10.59 10.099-21.945 14.326-33.928 16.636 4.659 32.124 10.363 46.077 17.019-23.808 23.683-51.961 41.423-82.659 52.472 8.013-10.186 15.476-22.061 22.256-35.563zM391.768 241c-1.046-35.074-5.75-68.839-13.751-99.565 21.096-5.946 40.586-13.453 57.812-22.357C462.77 154.31 478.595 196.4 481.498 241z"/></svg>